<svg xmlns="http://www.w3.org/2000/svg" width="372" height="258" fill="none" viewBox="0 0 372 258">
  <g clip-path="url(#clip0)">
    <path fill="#E6E6E6" d="M43.352 223.511s-47.317-21.79-30.694-36.9c16.622-15.11 30.694 36.9 30.694 36.9z"/>
    <path fill="#E6E6E6" d="M42.528 228.596s-21.748-71.484 10.277-68.065c32.025 3.419-10.277 68.065-10.277 68.065z"/>
    <path fill="#E6E6E6" d="M26.671 222.256l.913 11.958.015.206c-.001 1.868.093 3.734.282 5.591 1.239 12.197 6.563 17.756 12.786 17.756 6.224 0 11.316-5.559 12.555-17.756.19-1.857.283-3.723.283-5.591l.007-.166.004-.04.916-11.958h-27.76z"/>
    <path fill="#fff" d="M53.516 234.214l-.004.04-.007.166c0 1.868-.094 3.734-.283 5.591H27.881a54.926 54.926 0 01-.282-5.591l-.015-.206h25.932z"/>
    <path fill="#E6E6E6" d="M351.959 230.824s-36.633-16.87-23.763-28.569c12.869-11.698 23.763 28.569 23.763 28.569z"/>
    <path fill="#E6E6E6" d="M351.322 234.761s-16.838-55.344 7.956-52.697c24.795 2.647-7.956 52.697-7.956 52.697z"/>
    <path fill="#E6E6E6" d="M339.045 229.852l.707 9.258.011.16a42.282 42.282 0 00.219 4.329c.959 9.443 5.081 13.746 9.899 13.746 4.818 0 8.761-4.303 9.72-13.746.147-1.438.22-2.883.219-4.329l.006-.129.002-.031.71-9.258h-21.493z"/>
    <path fill="#fff" d="M359.828 239.11l-.002.031-.006.129a42.282 42.282 0 01-.219 4.329h-19.619a42.282 42.282 0 01-.219-4.329l-.011-.16h20.076z"/>
    <path fill="#E6E6E6" d="M123.325 76.954V60.691h-2.527v16.263a3.368 3.368 0 00-2.045 3.77 3.368 3.368 0 005.452 1.958 3.368 3.368 0 00.819-4.21 3.368 3.368 0 00-1.699-1.518z"/>
    <path fill="#E6E6E6" d="M129.224 241.079H111.95V31.189h-6.741v209.89H87.935a15.578 15.578 0 00-11.023 4.567 15.598 15.598 0 00-4.566 11.027h72.466a15.602 15.602 0 00-4.565-11.027 15.593 15.593 0 00-11.023-4.567z"/>
    <path fill="#28D063" d="M72.381 62.377h72.397L140.35 7.021A7.666 7.666 0 00132.747 0H84.411a7.665 7.665 0 00-7.603 7.021l-4.427 55.356z"/>
    <path fill="#A0616A" d="M173.183 159.533a5.2 5.2 0 00-2.049.069 5.197 5.197 0 00-3.256 2.361 5.221 5.221 0 00-.702 1.928l-2.038 13.381 6.935 1.84 5.081-12.467a5.203 5.203 0 00-.276-4.511 5.204 5.204 0 00-3.695-2.601z"/>
    <path fill="#28D063" d="M173.054 177.247c3.848 15.3 2.192 29.294-12.139 40.282-17.19-4.74-28.622-16.176-35.598-32.797a8.299 8.299 0 014.784-10.997 8.294 8.294 0 019.125 2.352l16.865 19.474 7.913-19.636 9.05 1.322z"/>
    <path fill="#E6E6E6" d="M261.126 257.519c-15.696-.834-25.446-6.225-27.807-17.28l2.528-4.636 28.942 13.189a4.048 4.048 0 012.367 3.84 4.054 4.054 0 01-2.652 3.648l-3.378 1.239z"/>
    <path fill="#E6E6E6" d="M248.998 257.63c-8.155-.247-15.998-.17-23.429.333a4.965 4.965 0 01-5.286-4.559l-.446-5.579-6.32-10.115 5.477-5.479c9.205 9.171 19.299 16.874 31.288 21.453.386.264.675.645.825 1.088.151.442.154.921.009 1.365a2.164 2.164 0 01-2.118 1.493z"/>
    <path fill="#2F2E41" d="M204.669 217.901c-10.413 18.64-20.655 31.206-34.126 37.932-16.574 5.472-28.687-1.778-38.129-16.648l27.385-18.123 4.003 4.004 36.274-27.614a4.633 4.633 0 016.515.145l30.941 38.006-3.792 6.322-29.071-24.024z"/>
    <path fill="#2F2E41" d="M213.938 239.818l-14.324-21.917 3.37-6.322 18.959 19.809-8.005 8.43z"/>
    <path fill="#A0616A" d="M131.361 169.854c7.911 0 14.324-6.416 14.324-14.33s-6.413-14.33-14.324-14.33c-7.912 0-14.325 6.416-14.325 14.33s6.413 14.33 14.325 14.33z"/>
    <path fill="#A0616A" d="M135.153 182.077l-16.01-5.48a19.9 19.9 0 002.949-12.644h13.061c-.743 6.431-.854 12.531 0 18.124z"/>
    <path fill="#28D063" d="M169.279 220.43c-2.4.986-2.576 4.182-4.845 5.268-10.971 5.251-22.578 9.512-30.545 17.07-18.619-12.649-35.877-51.932-13.482-69.121 7.644 4.475 14.472 7.677 14.324 0l34.548 46.783z"/>
    <path fill="#000" d="M159.589 203.571l-7.794-2.739-15.378 12.012-6.894-24.826c-.478-1.722-1.253-.849-2.365.347a8.286 8.286 0 00-8.776-1.584 8.291 8.291 0 00-5.129 7.297c-.82 18.008 4.609 33.243 18.108 44.897 17.656-3.782 25.149-15.715 28.228-31.189l-.835-.557c.308-1.195.586-2.415.835-3.658z" opacity=".2"/>
    <path fill="#2F2E41" d="M133.288 136.674c4.725 1.079 10.103 2.61 10.405 4.032 4.861 1.225 8.529 4.16 9.278 8.634a2.675 2.675 0 01-1.55 2.874 2.68 2.68 0 01-1.137.234c-2.643-.034-6.611-.287-9.232-1.382-7.612 4.906-8.889 17.667-5.565 26.353l-5.231-.48-5.412-15.848-1.382 15.225-11.937-1.579 1.538-19.414a28.937 28.937 0 014.54-12.827c.261-.387.547-.757.855-1.107a15.165 15.165 0 0114.83-4.715z"/>
    <path fill="#3F3D56" d="M160.22 184.783l13.11 15.418 19.665-23.217-13.288-16.127-19.487 23.926z"/>
    <path fill="#F2F2F2" d="M189.629 177.516l-15.591-12.76c.886-2.127 5.138-1.418 5.138-1.418l12.204 12.377c.425.431.789.918 1.083 1.447l-2.834.354z"/>
    <path fill="#3F3D56" d="M190.337 176.63l-17.716-13.824-19.665 29.775 18.513 12.494c1.772.709 3.544-.531 3.544-.531l18.07-27.648-2.746-.266z"/>
    <path fill="#28D063" d="M174.83 167.121l-.167.233 11.339 8.151.168-.233-11.34-8.151zM186.32 178.323l-14.882 22.508.24.159 14.881-22.508-.239-.159zM157.826 192.64l-.171.232 12.045 8.865.17-.232-12.044-8.865zM172.68 167.509l-15.413 22.154.235.164 15.414-22.154-.236-.164z"/>
    <path fill="#B3B3B3" d="M177.441 163.162l-.12.131 14.019 12.871.12-.131-14.019-12.871zM176.273 163.273l-.117.133 14.652 12.939.117-.133-14.652-12.939zM175.357 163.53l-.114.137 15.21 12.682.114-.136-15.21-12.683z"/>
    <path fill="#A0616A" d="M167.296 189.309a5.216 5.216 0 00-5.834-.08 5.204 5.204 0 00-1.46 1.441l-7.575 11.215 5.477 4.637 9.933-9.085a5.21 5.21 0 001.683-4.194 5.217 5.217 0 00-2.224-3.934z"/>
    <path fill="#28D063" d="M159.589 205.257c-3.079 15.474-10.572 27.407-28.228 31.189-13.499-11.654-18.928-26.889-18.108-44.896a8.31 8.31 0 012.833-5.874 8.284 8.284 0 0113.437 4.028l6.894 24.825 15.562-14.347 7.61 5.075z"/>
    <path fill="#E6E6E6" d="M194.347 38.567a.843.843 0 00-.842.843v65.749a.844.844 0 00.842.843h54.771a.842.842 0 00.843-.843V39.41a.843.843 0 00-.843-.843h-54.771z"/>
    <path fill="#fff" d="M200.035 99.47h43.395V45.1h-43.395v54.37z"/>
    <path fill="#E6E6E6" d="M285.534 55.847a.503.503 0 00-.503.503v32.711a.504.504 0 00.503.504h39.238a.503.503 0 00.503-.504v-32.71a.504.504 0 00-.503-.504h-39.238z"/>
    <path fill="#fff" d="M288.929 59.747v25.917h32.448V59.747h-32.448z"/>
    <path fill="#E6E6E6" d="M229.395 43.203h-15.324a2.1 2.1 0 01-2.111-2.107c.001-.37.1-.734.286-1.054l7.662-13.276.02-.033a2.079 2.079 0 011.595-1.01l.011-.002a2.086 2.086 0 012.023 1.045l7.662 13.276a2.106 2.106 0 01-1.824 3.161zm-15.747-2.11c0 .076.02.149.058.214a.411.411 0 00.364.21h15.325a.413.413 0 00.365-.21.44.44 0 00.058-.213.425.425 0 00-.058-.209l-7.662-13.276a.424.424 0 00-.576-.154.421.421 0 00-.154.154l-7.662 13.276a.404.404 0 00-.058.209z"/>
    <path fill="#E6E6E6" d="M221.733 29.716a1.264 1.264 0 100-2.528 1.264 1.264 0 000 2.528zM309.307 56.9h-8.308a1.14 1.14 0 01-.989-1.713l4.154-7.198.01-.018a1.135 1.135 0 01.865-.548h.006a1.13 1.13 0 011.097.566l4.154 7.198a1.145 1.145 0 01-.418 1.56c-.173.101-.37.154-.571.154zm-8.538-1.143c.001.04.012.08.032.116a.224.224 0 00.198.114h8.308a.227.227 0 00.198-.343l-4.154-7.198a.227.227 0 00-.198-.114.226.226 0 00-.198.114l-4.154 7.198a.226.226 0 00-.032.113z"/>
    <path fill="#E6E6E6" d="M305.153 49.589a.685.685 0 100-1.371.685.685 0 000 1.37zM200.531 78.767a11.166 11.166 0 016.431-6.038 11.026 11.026 0 019.189.572c3.288 1.745 5.916 4.49 9.255 6.16a23.665 23.665 0 0010.443 2.46 23.37 23.37 0 0011.71-3.04.632.632 0 00-.638-1.091 22.468 22.468 0 01-21.247.39c-3.35-1.758-6.004-4.595-9.417-6.241a12.158 12.158 0 00-9.366-.526 12.578 12.578 0 00-7.578 7.018c-.307.753.915 1.08 1.218.336zM199.533 90.586a48.097 48.097 0 0121.293.074c6.221 1.443 12.643 4.04 19.058 2.103 2.865-.865 5.492-2.595 6.964-5.258.394-.713-.697-1.352-1.091-.639-2.772 5.015-9.266 5.86-14.395 5.038-3.427-.55-6.73-1.652-10.103-2.441a49.227 49.227 0 00-22.062-.096c-.794.177-.458 1.396.336 1.22zM199.077 62.323a49.962 49.962 0 0120.241.72c6.191 1.518 12.243 4.985 18.79 4.386 3.03-.277 6.031-1.392 8.09-3.712.538-.606-.352-1.504-.894-.894-1.776 2.001-4.334 3.038-6.959 3.318-3.026.323-5.999-.304-8.879-1.195-3.188-.986-6.285-2.236-9.526-3.05a51.17 51.17 0 00-21.199-.792c-.8.137-.461 1.355.336 1.22zM294.58 59.32a22.043 22.043 0 015.781 10.784 21.78 21.78 0 01-4.705 18.486c-.524.617.366 1.516.894.894A23.362 23.362 0 00301.9 77.4a23.06 23.06 0 00-6.427-18.973c-.57-.583-1.464.312-.893.893zM313.543 56.622c-3.873 2.842-6.042 7.43-6.347 12.174-.318 4.937 1.565 9.705 4.595 13.538a26.334 26.334 0 006.256 5.65c.683.446 1.317-.648.638-1.092-3.869-2.533-7.181-6.131-8.939-10.449a16.929 16.929 0 01-.037-12.955 13.846 13.846 0 014.472-5.774c.649-.476.02-1.574-.638-1.092z"/>
    <path fill="#E6E6E6" d="M224.682 69.334a5.9 5.9 0 005.898-5.9 5.899 5.899 0 10-11.796 0c0 3.258 2.64 5.9 5.898 5.9z"/>
  </g>
  <defs>
    <clipPath id="clip0">
      <path fill="#fff" d="M0 0h372v258H0z"/>
    </clipPath>
  </defs>
</svg>
