<svg xmlns="http://www.w3.org/2000/svg" width="233" height="150" fill="none" viewBox="0 0 233 150">
  <g clip-path="url(#clip0)">
    <path fill="#FFE4AD" d="M16.377 94.917c-1.518 0-1.886-1.648-3.796-1.648-1.19 0-3.678.674-3.678 1.829l1.253 8.736h6.927l1.442-9.657c-.177.545-.979.74-2.148.74z"/>
    <path fill="#28D063" d="M204.763 149.709c2.987-4.395 4.232-7.89 4.232-9.268 0-13.627-46.261-28.175-92.684-30.846-.007-6.855-33.212-52.482-52.68-52.482-13.849 0-23.348 8.792-23.348 29.061 0 25.663 10.161 47.361 24.645 63.535h139.835z"/>
    <path fill="#FD8369" d="M204.003 99.14c1.883 0 2.879-17.972 2.879-19.955 0-1.983-4.306-20.758-17.358-20.758-4.921 0-8.417 5.114-8.417 11.507 0 8.843 12.105 15.413 13.976 17.403 3.224 3.421 4.936 11.803 8.92 11.803z"/>
    <path fill="#FFD98E" d="M206.369 108.039c-1.167 0-4.33-8.719-4.33-15.923 0-8.396 7.687-18.67 8.717-22.377 1.822-6.575 4.823-19.406 13.976-19.406 5.198 0 8.273 5.686 8.273 11.59 0 5.686-5.566 10.607-10.573 16.258-4.904 5.54-4.337 10.209-7.067 16.985-2.795 6.924-7.363 12.873-8.996 12.873z"/>
    <path stroke="#FD8369" stroke-linecap="round" stroke-linejoin="round" stroke-width="2.38" d="M206.256 106.171c-1.694-9.962 9.034-39.766 17.181-48.11"/>
    <path stroke="#FFD98E" stroke-linecap="round" stroke-linejoin="round" stroke-width="2.38" d="M192.172 65.54c1.641 1.349 11.198 17.215 11.912 24.862"/>
    <path fill="#3EB768" d="M206.98 104.322h13.108l-6.554 45.387h-13.287l-6.552-45.387h13.106"/>
    <path fill="#000" d="M96.472 47.498c0 20.73 6.375 20.629 6.375 23.64 0 5.917-2.969 5.226-2.969 5.226s-30.583-2.97-3.406-28.866z"/>
    <path stroke="#C4C4C4" stroke-linecap="round" stroke-linejoin="round" stroke-width="2.38" d="M28.065 7.217v-18.926M151.504 7.217v-18.926"/>
    <path fill="#FFE4AD" d="M28.065 26.561a4.184 4.184 0 004.193-4.175 4.185 4.185 0 00-4.193-4.177 4.184 4.184 0 00-4.193 4.177 4.184 4.184 0 004.193 4.175zM151.504 26.561a4.184 4.184 0 004.193-4.175 4.184 4.184 0 00-4.193-4.177c-2.315 0-4.193 1.87-4.193 4.177 0 2.306 1.878 4.175 4.193 4.175z"/>
    <path fill="#5FC5D1" d="M207.988 128.46c-1.597-2.769-59.338-20.487-65.993-20.758-12.505-2.11-20.736 4.691-23.766 10.623 11.644 2.606 25.5 6.418 29.028 7.866h.863a21.362 21.362 0 011.687-.014c4.392-.051 8.055-.154 10.031-.271 5.998 2.227 45.063 10.836 46.024 10.315.961-.52 2.834-6.535 2.126-7.761z"/>
    <path fill="#FFD98E" d="M103.296 115.724c3.546.167 10.674 1.583 18.218 3.349 4.605-4.462 8.075-10.55 7.741-17.828-7.111-16.323-35.553-37.426-47.445-37.416-1.788 1.465-2.18 12.145-3.536 18.365-.49 2.28 1.856 8.874 5.394 16.345 8.106 6.12 15.882 13.141 19.628 17.185z"/>
    <path fill="#E49D75" d="M207.178 130.17l5.069 1.297-1.56 5.082-5.024-.901 1.515-5.478zM89.516 60.713c-.093 1.182-.032 6.125.562 8.518-1.685-.03-11.738-9.234-.562-8.518z"/>
    <path fill="#E49D75" d="M87.162 61.946c4.91 0 8.889-5.194 8.889-11.6 0-6.407-3.98-11.6-8.889-11.6-4.909 0-8.888 5.193-8.888 11.6 0 6.406 3.98 11.6 8.888 11.6z"/>
    <path fill="#000" d="M86.61 35.57c-11.587 0-16.182 16.707-16.182 25.888 0 8.227 3.101 10.43 4.516 11.104 1.415.674 4.985.799 7.263 1.348 2.918.706 4.502 3.373 7.199 3.373 2.094 0 3.327-2.025 3.327-3.664 0-6.64-11.154-12.21-11.154-22.091 2.138-.733 10.142-6.538 10.142-8.848 0 1.568 4.094 5.827 4.786 6.13.304-1-1.37-13.24-9.896-13.24z"/>
    <path fill="#E0E0E0" d="M131.147 80.499l-12.92-.74-1.326 22.975 12.92.739 1.326-22.974z"/>
    <path fill="#C9C9C9" d="M141.672 95.938l-8.844 6.802 1.326-22.976 8.844-6.802-1.326 22.976z"/>
    <path stroke="#D3D3D3" stroke-linecap="round" stroke-linejoin="round" stroke-width="2.38" d="M119.026 78.306l12.958 1.993M138.891 72.552l-6.299 7.747M140.578 73.231l-7.473 6.858"/>
    <path fill="#E49D75" d="M180.795 129.085l2.491 3.647 3.541-2.174-2.101-3.526-3.931 2.053z"/>
    <path fill="#FD8369" d="M28.065 7.217a16.1 16.1 0 00-11.36 4.688A15.971 15.971 0 0012 23.221h32.135c0-2.102-.415-4.183-1.223-6.125a16 16 0 00-3.484-5.192 16.072 16.072 0 00-5.213-3.47 16.123 16.123 0 00-6.15-1.217zM151.504 7.217a16.118 16.118 0 00-11.361 4.688 15.955 15.955 0 00-4.704 11.316h32.121c0-4.243-1.692-8.311-4.702-11.312a16.102 16.102 0 00-11.354-4.692z"/>
    <path stroke="#C4C4C4" stroke-linecap="round" stroke-linejoin="round" stroke-width="2.38" d="M.292 104.322h49.245M24.914 104.322v45.387"/>
    <path stroke="#FD8369" stroke-linecap="round" stroke-linejoin="round" stroke-width="2.38" d="M37.866 97.733H26.65v6.101h11.216v-6.1z"/>
    <path fill="#E49D75" d="M80.844 54.956a2.31 2.31 0 002.314-2.305 2.31 2.31 0 00-2.314-2.305 2.31 2.31 0 00-2.315 2.305 2.31 2.31 0 002.315 2.305z"/>
    <path fill="#D3D3D3" d="M132.828 102.74l-3.011.74 1.326-22.974 3.011-.742-1.326 22.976z"/>
    <path fill="#000" d="M182.585 132.536l1.829 5.038 15.333-3.875-.584-2.948-12.451-.884-4.127 2.669zM210.405 136.27l4.858 2.306 8.174-13.491-2.493-1.687-9.484 8.088-1.055 4.784z"/>
    <path fill="#6BD5E1" d="M157.372 77.283c-11.858 2.686-32.349 24.421-42.473 40.315 7.339 1.543 16.183 3.768 22.889 5.641 10.203-7.908 17.654-20.514 18.757-22.018 2.786 5.648 22.578 28.646 24.03 28.646 1.451 0 3.812-1.026 4.742-2.772-.834-4.928-21.658-50.706-27.945-49.812z"/>
    <path fill="#E49D75" d="M90.705 104.129c9.188-.833 27.019-4.095 28.544-4.418 1.917-.403 3.658-6.364 1.973-9.893-.581-1.04-1.226-1.067-1.716-.952-.49.115-1.66 4.41-2.854 4.64-1.194.23-23.267 1.543-25.133 1.626-.245-1.157-2.488-9.544-3.028-10.206-.54-.661-12.235 5.197-12.235 5.197a40.07 40.07 0 001.883 4.435c4.225 2.884 8.592 6.269 12.566 9.571z"/>
    <path fill="#FFE4AD" d="M74.714 67.614c3.835-1.353 12.463 3.456 15.033 17.083-1.472 2.049-9.563 6.528-14.263 6.462-2.055-1.81-8.928-20.678-.77-23.545z"/>
    <path stroke="#FD8369" stroke-linecap="round" stroke-linejoin="round" stroke-width="2.38" d="M19.226 89.471l-2.143 14.363h-6.927l-2.06-14.363"/>
  </g>
  <defs>
    <clipPath id="clip0">
      <path fill="#fff" d="M0 0h233v162H0z" transform="translate(0 -12)"/>
    </clipPath>
  </defs>
</svg>
